{"title":"The.Lost.Boy.2015.HDRip.x264-MenaceIISociety","uid":12166427,"size":745395124,"categoryP":"video","categoryS":"movies","magnet":"?xt=urn:btih:4925e141df80642d0729b9fd50a6c9f02eb0c11c&amp;dn=The.Lost.Boy.2015.HDRip.x264-MenaceIISociety&amp;tr=udp%3A%2F%2Ftracker.openbittorrent.com%3A80&amp;tr=udp%3A%2F%2Fopen.demonii.com%3A1337&amp;tr=udp%3A%2F%2Ftracker.coppersurfer.tk%3A6969&amp;tr=udp%3A%2F%2Fexodus.desync.com%3A6969","seeders":1,"leechers":0,"uploader":"TvTeam","files":4,"time":1438050970,"description":"------------------------------------------------------------------------\n\n &lt;a href=&quot; https://www.torrenting.com&quot; rel=&quot;nofollow&quot; target=&quot;_NEW&quot;&gt; https://www.torrenting.com&lt;/a&gt;\n\nSign up is OPEN - for time being. Come and have fun\n\n.......................................................................................................................[img]http://lookpic.com/O/i2/794/XKPWe2Jk.jpeg[/img]\n\nThe.Lost.Boy.2015.HDRip.x264-MenaceIISociety &lt;a href=&quot;\nhttp://www.imdb.com/title/tt4355236/&quot; rel=&quot;nofollow&quot; target=&quot;_NEW&quot;&gt;\nhttp://www.imdb.com/title/tt4355236/&lt;/a&gt;\n\nSource: 720p-RARBG [THANKS]\n\nNOTE: Source was dark so i adjusted some gain and gamma_y, enjoy. http://screenshotcomparison.com/comparison/136716\n\nGeneral\nComplete name                            : The.Lost.Boy.2015.HDRip.x264-MenaceIISociety.mp4\nFormat                                   : MPEG-4\nFormat profile                           : Base Media\nCodec ID                                 : isom\nFile size                                : 696 MiB\nDuration                                 : 1h 27mn\nOverall bit rate mode                    : Variable\nOverall bit rate                         : 1 108 Kbps\nEncoded date                             : UTC 2015-07-28 00:11:44\nTagged date                              : UTC 2015-07-28 00:11:44\n\nVideo\nID                                       : 1\nFormat                                   : AVC\nFormat/Info                              : Advanced Video Codec\nFormat profile                           : &lt;a class=&quot;__cf_email__&quot; href=&quot;/cdn-cgi/l/email-protection&quot; data-cfemail=&quot;8dc5e4eae5cdc1b9a3bc&quot;&gt;[email&amp;#160;protected]&lt;/a&gt;&lt;script data-cfhash='f9e31' type=&quot;text/javascript&quot;&gt;\n/* &lt;![CDATA[ */!function(){try{var t=&quot;currentScript&quot;in document?document.currentScript:function(){for(var t=document.getElementsByTagName(&quot;script&quot;),e=t.length;e--;)if(t[e].getAttribute(&quot;data-cfhash&quot;))return t[e]}();if(t&amp;&amp;t.previousSibling){var e,r,n,i,c=t.previousSibling,a=c.getAttribute(&quot;data-cfemail&quot;);if(a){for(e=&quot;&quot;,r=parseInt(a.substr(0,2),16),n=2;a.length-n;n+=2)i=parseInt(a.substr(n,2),16)^r,e+=String.fromCharCode(i);e=document.createTextNode(e),c.parentNode.replaceChild(e,c)}t.parentNode.removeChild(t);}}catch(u){}}()/* ]]&gt; */&lt;/script&gt;\nFormat settings, CABAC                   : Yes\nFormat settings, ReFrames                : 3 frames\nCodec ID                                 : avc1\nCodec ID/Info                            : Advanced Video Coding\nDuration                                 : 1h 27mn\nBit rate mode                            : Variable\nBit rate                                 : 979 Kbps\nMaximum bit rate                         : 40.0 Mbps\nWidth                                    : 720 pixels\nHeight                                   : 400 pixels\nDisplay aspect ratio                     : 16:9\nFrame rate mode                          : Constant\nFrame rate                               : 23.976 fps\nColor space                              : YUV\nChroma subsampling                       : 4:2:0\nBit depth                                : 8 bits\nScan type                                : Progressive\nBits/(Pixel*Frame)                       : 0.142\nStream size                              : 615 MiB (88%)\nWriting library                          : x264 core 146 r2538 121396c\n\nAudio\nID                                       : 2\nFormat                                   : AAC\nFormat/Info                              : Advanced Audio Codec\nFormat profile                           : LC\nCodec ID                                 : 40\nDuration                                 : 1h 27mn\nBit rate mode                            : Variable\nBit rate                                 : 125 Kbps\nMaximum bit rate                         : 187 Kbps\nChannel(s)                               : 2 channels\nChannel positions                        : Front: L R\nSampling rate                            : 48.0 KHz\nCompression mode                         : Lossy\nStream size                              : 78.4 MiB (11%)\nLanguage                                 : English\nEncoded date                             : UTC 2015-07-27 23:16:11\nTagged date                              : UTC 2015-07-28 00:12:15\n\n[img]http://s7.postimg.org/61cci59tn/vlcsnap_2015_07_28_02h14m56s584.jpg[/img]\n[img]http://s7.postimg.org/6gnmb5vqz/vlcsnap_2015_07_28_02h15m16s201.jpg[/img]\n[img]http://s7.postimg.org/n9ivnbxtn/vlcsnap_2015_07_28_02h15m21s056.jpg[/img]\n[img]http://s7.postimg.org/ppkp16fwb/vlcsnap_2015_07_28_02h15m40s356.jpg[/img]\n[img]http://s7.postimg.org/niggd9am3/vlcsnap_2015_07_28_02h17m15s017.jpg[/img]\n[img]http://s7.postimg.org/faeis9ipn/vlcsnap_2015_07_28_02h17m46s174.jpg[/img]\n[img]http://s7.postimg.org/hmmipuvaz/vlcsnap_2015_07_28_02h18m03s048.jpg[/img]\n[img]http://s7.postimg.org/poar7re2j/vlcsnap_2015_07_28_02h18m43s184.jpg[/img] \n\n[img]http://s17.postimg.org/r1iiyw8yn/Untitled_1.png[/img]","torrent":{"xt":"urn:btih:4925e141df80642d0729b9fd50a6c9f02eb0c11c","amp;dn":"The.Lost.Boy.2015.HDRip.x264-MenaceIISociety","amp;tr":["udp%3A%2F%2Ftracker.openbittorrent.com%3A80","udp%3A%2F%2Fopen.demonii.com%3A1337","udp%3A%2F%2Ftracker.coppersurfer.tk%3A6969","udp%3A%2F%2Fexodus.desync.com%3A6969"],"infoHash":"4925e141df80642d0729b9fd50a6c9f02eb0c11c","infoHashBuffer":{"type":"Buffer","data":[73,37,225,65,223,128,100,45,7,41,185,253,80,166,201,240,46,176,193,28]},"announce":[],"urlList":[]}}